<svg width="38" height="45" viewBox="0 0 38 45" fill="none" xmlns="http://www.w3.org/2000/svg">
<path d="M21.4312 12.8864C20.1549 12.3946 18.9711 11.9121 17.7596 11.4946C17.6205 11.468 17.4776 11.4699 17.3393 11.5002C17.201 11.5305 17.0703 11.5886 16.955 11.6709C15.5677 12.6452 14.2359 13.6844 12.8487 14.6401C11.1054 15.8418 8.95048 15.0067 8.55279 12.9931C8.44202 12.5061 8.47779 11.997 8.6556 11.5303C8.83341 11.0637 9.14525 10.6605 9.55162 10.3718C11.3366 9.014 13.1462 7.68712 14.9804 6.39116C15.4832 6.02391 16.0707 5.7908 16.6878 5.71371C17.305 5.63662 17.9315 5.71807 18.5087 5.95041C20.9364 6.85511 23.3641 7.7598 25.7825 8.69233C26.446 8.94469 27.0371 9.35748 27.5034 9.89408C27.9696 10.4307 28.2966 11.0745 28.4553 11.7683C28.9177 13.4988 29.3478 15.2433 29.7917 16.9784C29.8472 17.1918 29.9166 17.4006 29.9905 17.6465C30.809 17.2336 31.572 16.8439 32.3396 16.4634C32.6525 16.2875 32.9972 16.1758 33.3536 16.135C33.71 16.0941 34.0709 16.1249 34.4153 16.2255C34.7597 16.3262 35.0806 16.4946 35.3594 16.7211C35.6382 16.9475 35.8692 17.2274 36.039 17.5444C36.2112 17.8555 36.3192 18.1983 36.3564 18.5522C36.3937 18.9061 36.3595 19.2639 36.256 19.6042C36.1524 19.9446 35.9815 20.2605 35.7536 20.5331C35.5256 20.8058 35.2452 21.0295 34.9292 21.1911C33.5419 21.9659 32.1547 22.7035 30.6981 23.3623C30.1671 23.5992 29.5917 23.7188 29.0107 23.7131C28.4297 23.7073 27.8567 23.5764 27.3305 23.3292C26.8043 23.0819 26.3372 22.7241 25.9608 22.28C25.5845 21.8359 25.3076 21.3158 25.149 20.755C24.9132 19.957 24.7328 19.1451 24.4785 18.1476C23.9329 18.9688 23.4612 19.6554 23.0126 20.3606C22.5641 21.0658 21.8566 21.7246 21.8474 22.4112C21.8381 23.0979 22.5826 23.7381 23.0126 24.3877C24.0901 26.0347 25.1629 27.6863 26.2496 29.3148C26.6862 29.9077 26.9622 30.604 27.0505 31.3358C27.1388 32.0677 27.0365 32.81 26.7536 33.4903C25.7548 36.1069 24.7513 38.7236 23.7201 41.3264C23.5994 41.667 23.4123 41.9801 23.1698 42.2475C22.9273 42.515 22.6343 42.7314 22.3077 42.8842C21.9812 43.0371 21.6276 43.1232 21.2675 43.1377C20.9075 43.1522 20.5481 43.0948 20.2104 42.9687C19.8712 42.8437 19.5609 42.6507 19.2984 42.4015C19.0359 42.1523 18.8267 41.8521 18.6835 41.5192C18.5403 41.1863 18.4662 40.8277 18.4655 40.4651C18.4649 40.1026 18.5378 39.7437 18.6798 39.4102C19.5121 37.1369 20.3953 34.8821 21.2924 32.632C21.3827 32.4433 21.4189 32.2331 21.3968 32.025C21.3747 31.8169 21.2954 31.619 21.1676 31.4536C19.5954 29.106 18.0509 26.7352 16.4972 24.3737C15.4243 22.7406 15.4197 21.9612 16.4972 20.356L20.9872 13.6055C21.1121 13.4292 21.237 13.1926 21.4312 12.8864Z" stroke="#1D8CEA" stroke-width="2" stroke-miterlimit="10"/>
<path d="M15.6667 21.6667C14.7742 22.7291 10.6004 28.0436 9.7495 29.1385C9.63427 29.3139 9.4746 29.4553 9.28687 29.5482C9.09914 29.6412 8.89013 29.6823 8.68131 29.6674C7.09059 29.6674 5.49524 29.6535 3.85365 29.6674C2.21207 29.6813 1.00054 30.8319 1.00054 32.3629C0.993205 32.731 1.06121 33.0966 1.20035 33.4372C1.33948 33.7778 1.5468 34.0861 1.80946 34.3431C2.07212 34.6001 2.38453 34.8003 2.7274 34.9314C3.07026 35.0624 3.43628 35.1214 3.8028 35.1049C4.83399 35.1049 5.86519 35.1049 6.89638 35.1049C7.83047 35.1049 8.75992 35.0863 9.68939 35.1049C10.3709 35.1447 11.0518 35.0158 11.6719 34.7293C12.292 34.4429 12.8324 34.0079 13.2454 33.4625C14.3506 32.0846 17.2374 28.3919 18.3333 27" stroke="#1D8CEA" stroke-width="2" stroke-miterlimit="10"/>
<path d="M33.0163 9C31.9564 8.99908 30.9398 8.57828 30.1876 7.82917C29.4354 7.08006 29.0086 6.06326 29 5.00004C29.0085 3.94183 29.4313 2.92939 30.1773 2.1811C30.9232 1.4328 31.9325 1.00863 32.9873 1.00008C33.5131 0.996725 34.0343 1.09771 34.521 1.29722C35.0077 1.49674 35.4502 1.79084 35.8232 2.1626C36.1961 2.53437 36.4921 2.97646 36.6941 3.46342C36.896 3.95038 37 4.47261 37 5.00004C36.9952 6.0588 36.5741 7.07288 35.8282 7.82188C35.0822 8.57088 34.0717 8.99426 33.0163 9V9Z" stroke="#1D8CEA" stroke-width="2" stroke-miterlimit="10"/>
</svg>
