<svg width="26" height="26" viewBox="0 0 26 26" fill="none" xmlns="http://www.w3.org/2000/svg">
<path d="M10.3854 1.27542L10.1688 0.299154L9.34029 0.482939L9.38686 1.3303L10.3854 1.27542ZM14.4413 1.10005L15.4369 1.19332L15.5268 0.234409L14.5719 0.108613L14.4413 1.10005ZM21.7562 5.0911L22.5179 4.44319L21.894 3.70968L21.1375 4.3055L21.7562 5.0911ZM23.8209 8.63527L24.3034 9.51115L25.0536 9.09785L24.7605 8.29304L23.8209 8.63527ZM23.8209 16.5808L24.7605 16.9231L25.0536 16.1183L24.3034 15.705L23.8209 16.5808ZM21.7563 20.125L21.1375 20.9106L21.894 21.5064L22.518 20.7729L21.7563 20.125ZM14.4413 24.1161L14.5719 25.1075L15.5268 24.9817L15.4369 24.0228L14.4413 24.1161ZM10.3854 23.9407L9.38686 23.8858L9.34027 24.7332L10.1688 24.917L10.3854 23.9407ZM3.71507 19.6937L2.92339 20.3046L3.44173 20.9763L4.18887 20.5743L3.71507 19.6937ZM2 16.5809L1.51748 15.705L0.767257 16.1183L1.06038 16.9231L2 16.5809ZM2.00001 8.63526L1.0604 8.29304L0.767269 9.09785L1.51749 9.51114L2.00001 8.63526ZM3.71509 5.52245L4.18889 4.64182L3.44175 4.23984L2.92341 4.91151L3.71509 5.52245ZM9.39228 1.52818C9.39228 3.47922 7.81065 5.06086 5.85961 5.06086V7.06086C8.91522 7.06086 11.3923 4.58379 11.3923 1.52818H9.39228ZM9.38686 1.3303C9.39046 1.39571 9.39228 1.46168 9.39228 1.52818H11.3923C11.3923 1.42505 11.3895 1.32247 11.3838 1.22054L9.38686 1.3303ZM12.9104 0C11.9699 0 11.0523 0.103157 10.1688 0.299154L10.6019 2.25169C11.3442 2.08703 12.1166 2 12.9104 2V0ZM14.5719 0.108613C14.0278 0.0369304 13.4732 0 12.9104 0V2C13.3856 2 13.8529 2.03118 14.3107 2.09148L14.5719 0.108613ZM15.4213 1.52818C15.4213 1.41498 15.4266 1.3033 15.4369 1.19332L13.4456 1.00677C13.4295 1.17867 13.4213 1.3526 13.4213 1.52818H15.4213ZM18.954 5.06086C17.003 5.06086 15.4213 3.47922 15.4213 1.52818H13.4213C13.4213 4.58379 15.8984 7.06086 18.954 7.06086V5.06086ZM21.1375 4.3055C20.5363 4.77897 19.7795 5.06086 18.954 5.06086V7.06086C20.2442 7.06086 21.4337 6.618 22.375 5.87671L21.1375 4.3055ZM24.7605 8.29304C24.2431 6.87239 23.4779 5.57177 22.5179 4.44319L20.9945 5.73902C21.8031 6.68963 22.4465 7.7839 22.8813 8.97749L24.7605 8.29304ZM22.4722 12.6081C22.4722 11.2755 23.2096 10.1137 24.3034 9.51115L23.3384 7.75938C21.6319 8.69946 20.4722 10.5176 20.4722 12.6081H22.4722ZM24.3034 15.705C23.2096 15.1024 22.4722 13.9406 22.4722 12.6081H20.4722C20.4722 14.6985 21.6319 16.5167 23.3384 17.4567L24.3034 15.705ZM22.518 20.7729C23.4779 19.6444 24.2431 18.3437 24.7605 16.9231L22.8813 16.2386C22.4466 17.4322 21.8031 18.5265 20.9945 19.4771L22.518 20.7729ZM18.954 20.1553C19.7795 20.1553 20.5364 20.4371 21.1375 20.9106L22.375 19.3394C21.4338 18.5981 20.2442 18.1553 18.954 18.1553V20.1553ZM15.4213 23.6879C15.4213 21.7369 17.003 20.1553 18.954 20.1553V18.1553C15.8984 18.1553 13.4213 20.6323 13.4213 23.6879H15.4213ZM15.4369 24.0228C15.4266 23.9128 15.4213 23.8011 15.4213 23.6879H13.4213C13.4213 23.8635 13.4295 24.0375 13.4457 24.2094L15.4369 24.0228ZM12.9104 25.2162C13.4732 25.2162 14.0278 25.1792 14.5719 25.1075L14.3107 23.1247C13.8529 23.185 13.3856 23.2162 12.9104 23.2162V25.2162ZM10.1688 24.917C11.0523 25.113 11.9699 25.2162 12.9104 25.2162V23.2162C12.1166 23.2162 11.3442 23.1291 10.6019 22.9645L10.1688 24.917ZM9.39228 23.6879C9.39228 23.7544 9.39046 23.8204 9.38686 23.8858L11.3838 23.9956C11.3895 23.8937 11.3923 23.7911 11.3923 23.6879H9.39228ZM5.85961 20.1553C7.81065 20.1553 9.39228 21.7369 9.39228 23.6879H11.3923C11.3923 20.6323 8.91522 18.1553 5.85961 18.1553V20.1553ZM4.18887 20.5743C4.6853 20.3072 5.25322 20.1553 5.85961 20.1553V18.1553C4.91439 18.1553 4.02176 18.3931 3.24126 18.813L4.18887 20.5743ZM1.06038 16.9231C1.50766 18.1511 2.14006 19.2895 2.92339 20.3046L4.50675 19.0827C3.84714 18.228 3.31541 17.2704 2.93962 16.2386L1.06038 16.9231ZM3.34872 12.6081C3.34872 13.9406 2.61128 15.1024 1.51748 15.705L2.48252 17.4567C4.18896 16.5167 5.34872 14.6985 5.34872 12.6081H3.34872ZM1.51749 9.51114C2.61129 10.1137 3.34872 11.2755 3.34872 12.6081H5.34872C5.34872 10.5176 4.18897 8.69946 2.48254 7.75938L1.51749 9.51114ZM2.92341 4.91151C2.14009 5.92657 1.50768 7.06497 1.0604 8.29304L2.93963 8.97749C3.31543 7.9457 3.84716 6.98813 4.50677 6.13339L2.92341 4.91151ZM5.85961 5.06086C5.25323 5.06086 4.68531 4.90891 4.18889 4.64182L3.24129 6.40308C4.02178 6.82301 4.9144 7.06086 5.85961 7.06086V5.06086ZM15.6176 12.6081C15.6176 14.1928 14.3329 15.4774 12.7482 15.4774V17.4774C15.4375 17.4774 17.6176 15.2973 17.6176 12.6081H15.6176ZM12.7482 9.73872C14.3329 9.73872 15.6176 11.0234 15.6176 12.6081H17.6176C17.6176 9.9188 15.4375 7.73872 12.7482 7.73872V9.73872ZM9.87886 12.6081C9.87886 11.0234 11.1635 9.73872 12.7482 9.73872V7.73872C10.0589 7.73872 7.87886 9.9188 7.87886 12.6081H9.87886ZM12.7482 15.4774C11.1635 15.4774 9.87886 14.1928 9.87886 12.6081H7.87886C7.87886 15.2973 10.0589 17.4774 12.7482 17.4774V15.4774Z" fill="white"/>
</svg>
