<svg width="25" height="25" viewBox="0 0 25 25" fill="none" xmlns="http://www.w3.org/2000/svg">
<circle cx="12.5" cy="12.5" r="11.5" stroke="white" stroke-width="2"/>
<path d="M11.808 13.3537C11.808 13.0417 11.91 12.7837 12.114 12.5797C12.318 12.3637 12.576 12.2557 12.888 12.2557C13.68 12.2557 14.316 12.0697 14.796 11.6977C15.276 11.3257 15.516 10.7497 15.516 9.96975C15.516 9.36975 15.3 8.87175 14.868 8.47575C14.436 8.07975 13.896 7.88175 13.248 7.88175C12.588 7.88175 12.006 8.10375 11.502 8.54775C11.214 8.81175 10.914 8.94375 10.602 8.94375C10.374 8.94375 10.17 8.87175 9.99 8.72775C9.678 8.48775 9.522 8.20575 9.522 7.88175C9.522 7.60575 9.636 7.35375 9.864 7.12575C10.296 6.68175 10.8 6.33975 11.376 6.09975C11.964 5.84775 12.588 5.72175 13.248 5.72175C14.064 5.72175 14.808 5.90775 15.48 6.27975C16.152 6.65175 16.686 7.16775 17.082 7.82775C17.478 8.47575 17.676 9.18975 17.676 9.96975C17.676 11.1217 17.346 12.0337 16.686 12.7057C16.026 13.3777 15.15 13.7977 14.058 13.9657C13.998 13.9897 13.968 14.0197 13.968 14.0557V14.7217C13.968 15.0337 13.866 15.2977 13.662 15.5137C13.458 15.7177 13.2 15.8197 12.888 15.8197C12.576 15.8197 12.318 15.7177 12.114 15.5137C11.91 15.2977 11.808 15.0337 11.808 14.7217V13.3537ZM12.798 19.0417C12.45 19.0417 12.18 18.9517 11.988 18.7717C11.808 18.5797 11.718 18.3097 11.718 17.9617V17.6557C11.718 17.3077 11.808 17.0437 11.988 16.8637C12.18 16.6717 12.45 16.5757 12.798 16.5757H13.032C13.38 16.5757 13.644 16.6717 13.824 16.8637C14.016 17.0437 14.112 17.3077 14.112 17.6557V17.9617C14.112 18.3097 14.016 18.5797 13.824 18.7717C13.644 18.9517 13.38 19.0417 13.032 19.0417H12.798Z" fill="white"/>
</svg>
